<svg width="96" height="96" viewBox="0 0 96 96" fill="none" xmlns="http://www.w3.org/2000/svg">
  <rect width="96" height="96" rx="48" fill="url(#paint0_linear_1_1)"/>
  <circle cx="48" cy="37" r="15" fill="#FFF4D9"/>
  <path d="M31 37.5C31 27.835 38.835 20 48.5 20C58.165 20 66 27.835 66 37.5V42C66 51.665 58.165 59.5 48.5 59.5C38.835 59.5 31 51.665 31 42V37.5Z" fill="#243B53"/>
  <path d="M32 77C32 66.5066 40.5066 58 51 58H52C62.4934 58 71 66.5066 71 77V79H32V77Z" fill="#FFF4D9"/>
  <path d="M24 79C24 67.402 34.1139 58 46.5882 58H49.4118C61.8861 58 72 67.402 72 79V82H24V79Z" fill="#D97A33"/>
  <circle cx="40" cy="39" r="2" fill="#FFF4D9"/>
  <circle cx="57" cy="39" r="2" fill="#FFF4D9"/>
  <path d="M43 47C44.8 48.8 46.8 49.7 49 49.7C51.2 49.7 53.2 48.8 55 47" stroke="#B75C21" stroke-linecap="round" stroke-width="2"/>
  <defs>
    <linearGradient id="paint0_linear_1_1" x1="10" y1="8" x2="86" y2="88" gradientUnits="userSpaceOnUse">
      <stop stop-color="#DFF2EE"/>
      <stop offset="1" stop-color="#B8DDD5"/>
    </linearGradient>
  </defs>
</svg>
