<svg xmlns="http://www.w3.org/2000/svg" style="display: none">
  <symbol id="icon-home" viewBox="0 0 24 24">
    <path d="M4 10.5 12 4l8 6.5" fill="none" stroke="currentColor" stroke-linecap="round" stroke-linejoin="round" stroke-width="1.9"/>
    <path d="M6.5 10.5V20h11V10.5" fill="none" stroke="currentColor" stroke-linecap="round" stroke-linejoin="round" stroke-width="1.9"/>
    <path d="M10 20v-5h4v5" fill="none" stroke="currentColor" stroke-linecap="round" stroke-linejoin="round" stroke-width="1.9"/>
  </symbol>
  <symbol id="icon-customers" viewBox="0 0 24 24">
    <circle cx="9" cy="8" r="3.2" fill="none" stroke="currentColor" stroke-width="1.9"/>
    <path d="M3.8 19.5c.8-3 2.8-4.8 5.2-4.8s4.4 1.8 5.2 4.8" fill="none" stroke="currentColor" stroke-linecap="round" stroke-width="1.9"/>
    <circle cx="17.2" cy="9" r="2.6" fill="none" stroke="currentColor" stroke-width="1.9"/>
    <path d="M14.7 18.8c.6-2.2 2.1-3.6 4.1-3.6 1 0 1.9.3 2.7 1" fill="none" stroke="currentColor" stroke-linecap="round" stroke-width="1.9"/>
  </symbol>
  <symbol id="icon-profile" viewBox="0 0 24 24">
    <circle cx="12" cy="8.2" r="3.6" fill="none" stroke="currentColor" stroke-width="1.9"/>
    <path d="M5.2 19.5c1.2-3.2 3.7-5 6.8-5s5.6 1.8 6.8 5" fill="none" stroke="currentColor" stroke-linecap="round" stroke-width="1.9"/>
  </symbol>
  <symbol id="icon-quick-order" viewBox="0 0 24 24">
    <rect x="4.2" y="4.2" width="15.6" height="15.6" rx="4.2" fill="none" stroke="currentColor" stroke-width="1.9"/>
    <path d="M12 8v8M8 12h8" fill="none" stroke="currentColor" stroke-linecap="round" stroke-width="1.9"/>
  </symbol>
  <symbol id="icon-microphone" viewBox="0 0 24 24">
    <rect x="9" y="4" width="6" height="10" rx="3" fill="none" stroke="currentColor" stroke-width="1.9"/>
    <path d="M6.5 11.5a5.5 5.5 0 0 0 11 0" fill="none" stroke="currentColor" stroke-linecap="round" stroke-width="1.9"/>
    <path d="M12 17.5V20" fill="none" stroke="currentColor" stroke-linecap="round" stroke-width="1.9"/>
    <path d="M9.5 20h5" fill="none" stroke="currentColor" stroke-linecap="round" stroke-width="1.9"/>
  </symbol>
  <symbol id="icon-inventory" viewBox="0 0 24 24">
    <path d="M5 7.5h14" fill="none" stroke="currentColor" stroke-linecap="round" stroke-width="1.9"/>
    <path d="M5 12h14" fill="none" stroke="currentColor" stroke-linecap="round" stroke-width="1.9"/>
    <path d="M5 16.5h10" fill="none" stroke="currentColor" stroke-linecap="round" stroke-width="1.9"/>
    <circle cx="17.5" cy="16.5" r="1.5" fill="currentColor"/>
  </symbol>
  <symbol id="icon-orders" viewBox="0 0 24 24">
    <rect x="6" y="4.5" width="12" height="15" rx="2.6" fill="none" stroke="currentColor" stroke-width="1.9"/>
    <path d="M9 4.5h6" fill="none" stroke="currentColor" stroke-linecap="round" stroke-width="1.9"/>
    <path d="M9 10h6M9 14h6" fill="none" stroke="currentColor" stroke-linecap="round" stroke-width="1.9"/>
  </symbol>
  <symbol id="icon-finance" viewBox="0 0 24 24">
    <path d="M4.5 18.5h15" fill="none" stroke="currentColor" stroke-linecap="round" stroke-width="1.9"/>
    <path d="M7 16V9.5" fill="none" stroke="currentColor" stroke-linecap="round" stroke-width="1.9"/>
    <path d="M12 16V6.5" fill="none" stroke="currentColor" stroke-linecap="round" stroke-width="1.9"/>
    <path d="M17 16v-4.5" fill="none" stroke="currentColor" stroke-linecap="round" stroke-width="1.9"/>
  </symbol>
  <symbol id="icon-debt" viewBox="0 0 24 24">
    <path d="M5 7.5h10" fill="none" stroke="currentColor" stroke-linecap="round" stroke-width="1.9"/>
    <path d="M5 12h14" fill="none" stroke="currentColor" stroke-linecap="round" stroke-width="1.9"/>
    <path d="M5 16.5h9" fill="none" stroke="currentColor" stroke-linecap="round" stroke-width="1.9"/>
    <path d="M18 14.2v5.6M15.2 17h5.6" fill="none" stroke="currentColor" stroke-linecap="round" stroke-width="1.9"/>
  </symbol>
  <symbol id="icon-sync" viewBox="0 0 24 24">
    <path d="M5 11a7 7 0 0 1 12-4.6" fill="none" stroke="currentColor" stroke-linecap="round" stroke-width="1.9"/>
    <path d="M19 13a7 7 0 0 1-12 4.6" fill="none" stroke="currentColor" stroke-linecap="round" stroke-width="1.9"/>
    <path d="M17 3.8v4h-4" fill="none" stroke="currentColor" stroke-linecap="round" stroke-linejoin="round" stroke-width="1.9"/>
    <path d="M7 20.2v-4h4" fill="none" stroke="currentColor" stroke-linecap="round" stroke-linejoin="round" stroke-width="1.9"/>
  </symbol>
  <symbol id="icon-rules" viewBox="0 0 24 24">
    <path d="M5 7h9" fill="none" stroke="currentColor" stroke-linecap="round" stroke-width="1.9"/>
    <path d="M5 12h14" fill="none" stroke="currentColor" stroke-linecap="round" stroke-width="1.9"/>
    <path d="M5 17h11" fill="none" stroke="currentColor" stroke-linecap="round" stroke-width="1.9"/>
    <circle cx="17.5" cy="7" r="2" fill="none" stroke="currentColor" stroke-width="1.9"/>
  </symbol>
  <symbol id="icon-phone" viewBox="0 0 24 24">
    <path d="M20.6 16.7v2.4a1.9 1.9 0 0 1-2.1 1.9c-7.9-.8-14.7-7.6-15.5-15.5A1.9 1.9 0 0 1 4.9 3.4h2.4a1.6 1.6 0 0 1 1.6 1.4c.1 1 .4 2 .8 2.9a1.7 1.7 0 0 1-.4 1.8L8 11a16 16 0 0 0 5 5l1.5-1.3a1.7 1.7 0 0 1 1.8-.4c.9.4 1.9.7 2.9.8a1.6 1.6 0 0 1 1.4 1.6Z" fill="none" stroke="currentColor" stroke-linecap="round" stroke-linejoin="round" stroke-width="1.9"/>
  </symbol>
  <symbol id="icon-location" viewBox="0 0 24 24">
    <path d="M12 21s-6.5-4.8-6.5-11A6.5 6.5 0 0 1 18.5 10C18.5 16.2 12 21 12 21Z" fill="none" stroke="currentColor" stroke-linecap="round" stroke-linejoin="round" stroke-width="1.9"/>
    <circle cx="12" cy="10" r="2.6" fill="none" stroke="currentColor" stroke-width="1.9"/>
  </symbol>
</svg>
